<?xml version="1.0" encoding="UTF-8" standalone="no"?>
<svg
   xmlns:osb="http://www.openswatchbook.org/uri/2009/osb"
   xmlns:dc="http://purl.org/dc/elements/1.1/"
   xmlns:cc="http://creativecommons.org/ns#"
   xmlns:rdf="http://www.w3.org/1999/02/22-rdf-syntax-ns#"
   xmlns:svg="http://www.w3.org/2000/svg"
   xmlns="http://www.w3.org/2000/svg"
   xmlns:xlink="http://www.w3.org/1999/xlink"
   xmlns:sodipodi="http://sodipodi.sourceforge.net/DTD/sodipodi-0.dtd"
   xmlns:inkscape="http://www.inkscape.org/namespaces/inkscape"
   version="1.1"
   width="595.27557"
   height="841.88977"
   id="svg20"
   viewBox="0 0 595.27557 841.88977"
   sodipodi:docname="APLogo-20-20.cdr.svg"
   inkscape:version="0.92.5 (2060ec1f9f, 2020-04-08)">
  <metadata
     id="metadata26">
    <rdf:RDF>
      <cc:Work
         rdf:about="">
        <dc:format>image/svg+xml</dc:format>
        <dc:type
           rdf:resource="http://purl.org/dc/dcmitype/StillImage" />
        <dc:title></dc:title>
      </cc:Work>
    </rdf:RDF>
  </metadata>
  <defs
     id="defs24">
    <linearGradient
       id="linearGradient843"
       osb:paint="solid">
      <stop
         style="stop-color:#00ffff;stop-opacity:1;"
         offset="0"
         id="stop841" />
    </linearGradient>
  </defs>
  <sodipodi:namedview
     pagecolor="#ffffff"
     bordercolor="#666666"
     borderopacity="1"
     objecttolerance="10"
     gridtolerance="10"
     guidetolerance="10"
     inkscape:pageopacity="0"
     inkscape:pageshadow="2"
     inkscape:window-width="1366"
     inkscape:window-height="707"
     id="namedview22"
     showgrid="false"
     inkscape:zoom="0.5"
     inkscape:cx="667.73421"
     inkscape:cy="596.84193"
     inkscape:window-x="0"
     inkscape:window-y="0"
     inkscape:window-maximized="1"
     inkscape:current-layer="svg20" />
  <g
     id="g4624"
     transform="translate(2,-93.5)">
    <image
       width="136.47325"
       height="83.466682"
       preserveAspectRatio="none"
       xlink:href="file:///home/juan/Escritorio/ARG%20PROG%20VIEJO/Proyecto%20Archivado/Archivado/imagenes/APLogo-20-20.png"
       id="image4582"
       x="85.487144"
       y="174.22575"
       sodipodi:absref="/home/juan/Escritorio/ARG PROG VIEJO/Proyecto Archivado/Archivado/imagenes/APLogo-20-20.png" />
    <path
       inkscape:connector-curvature="0"
       id="path4589"
       style="fill:#000000;fill-rule:evenodd;stroke:#1b1918;stroke-width:0.25155026;stroke-linecap:butt;stroke-linejoin:miter;stroke-dasharray:none"
       d="m 103.01747,199.60937 h 30.02847 c 2.2155,0 4.02678,1.81268 4.02678,4.02679 v 21.64392 c 0,2.21411 -1.81128,4.02678 -4.02678,4.02678 h -30.02847 c -2.2155,0 -4.027129,-1.81267 -4.027129,-4.02678 v -21.64392 c 0,-2.21411 1.811629,-4.02679 4.027129,-4.02679 z" />
    <path
       inkscape:connector-curvature="0"
       id="path4591"
       style="fill:#fcb319;fill-rule:evenodd;stroke-width:1.16458452"
       d="m 114.6023,224.54418 h 9.80906 c 0.93399,0 1.69785,-0.7642 1.69785,-1.69773 v -3.5e-4 c 0,-0.93388 -0.76386,-1.69785 -1.69785,-1.69785 h -9.80906 c -0.93388,0 -1.69785,0.76397 -1.69785,1.69785 v 3.5e-4 c 0,0.93353 0.76397,1.69773 1.69785,1.69773 z" />
    <g
       transform="matrix(1.1645845,0,0,1.1645845,-60.630871,-141.38481)"
       id="Layer1001">
      <path
         inkscape:connector-curvature="0"
         id="path4593"
         style="fill:#ffffff;fill-rule:evenodd;stroke:#ffffff;stroke-width:1.41729999;stroke-linecap:butt;stroke-linejoin:miter;stroke-dasharray:none"
         d="m 148.1567,305.4651 -3.8846,-4.756 c -0.1961,-0.2401 -0.193,-0.6369 0.007,-0.8821 v 0 c 0.2001,-0.2449 0.5244,-0.2492 0.7206,-0.009 l 3.8846,4.756 c 0.1961,0.2401 0.193,0.6372 -0.007,0.8821 v 0 c -0.2001,0.2452 -0.5244,0.2492 -0.7206,0.009 z" />
      <path
         inkscape:connector-curvature="0"
         id="path4595"
         style="fill:#ffffff;fill-rule:evenodd;stroke:#ffffff;stroke-width:1.41729999;stroke-linecap:butt;stroke-linejoin:miter;stroke-dasharray:none"
         d="m 148.8847,305.447 -3.8846,4.7559 c -0.1962,0.2401 -0.5205,0.2359 -0.7206,-0.009 v 0 c -0.2001,-0.2452 -0.2035,-0.6421 -0.007,-0.8822 l 3.8846,-4.756 c 0.1962,-0.24 0.5205,-0.2361 0.7209,0.009 v 0 c 0.2001,0.2449 0.2035,0.6421 0.007,0.8822 z" />
    </g>
  </g>
</svg>
